<?xml version="1.0" encoding="iso-8859-1"?>
<!-- Generator: Adobe Illustrator 18.1.1, SVG Export Plug-In . SVG Version: 6.00 Build 0)  -->
<svg version="1.1" id="Capa_1" xmlns="http://www.w3.org/2000/svg" xmlns:xlink="http://www.w3.org/1999/xlink" x="0px" y="0px"
	 viewBox="0 0 20.834 20.834" style="enable-background:new 0 0 20.834 20.834;" xml:space="preserve">
<g>
	<g>
		<path style="fill:#010002;" d="M11.278,0v9.28h9.556v-9.28C20.834,0.001,11.278,0.001,11.278,0z M19.788,5.73h-2.592v2.645h-2.251
			V5.73h-2.624V3.477h2.624V0.906h2.251v2.571h2.592C19.788,3.477,19.788,5.73,19.788,5.73z"/>
		<path style="fill:#010002;" d="M0,9.28h9.556v-9.28H0V9.28z M2.12,3.548h5.337v2.185H2.12V3.548z"/>
		<path style="fill:#010002;" d="M0,20.833h9.556V11H0V20.833z M1.396,13.787l1.254-1.253c0,0,1.999,2.13,2.128,2.13
			s2.13-2.13,2.13-2.13l1.253,1.253c0,0-2.13,1.985-2.13,2.134c0,0.143,2.13,2.13,2.13,2.13l-1.253,1.25c0,0-1.983-2.129-2.13-2.129
			c-0.146,0-2.128,2.129-2.128,2.129l-1.254-1.25c0,0,2.129-1.955,2.129-2.13C3.524,15.743,1.396,13.787,1.396,13.787z"/>
		<path style="fill:#010002;" d="M11.279,20.833h9.555V11h-9.555V20.833z M13.389,13.068h5.336v2.184h-5.336V13.068z M13.389,16.581
			h5.336v2.184h-5.336V16.581z"/>
	</g>
</g>
<g>
</g>
<g>
</g>
<g>
</g>
<g>
</g>
<g>
</g>
<g>
</g>
<g>
</g>
<g>
</g>
<g>
</g>
<g>
</g>
<g>
</g>
<g>
</g>
<g>
</g>
<g>
</g>
<g>
</g>
</svg>
