<svg id="Layer_1" enable-background="new 0 0 510 510" height="512" viewBox="0 0 510 510" width="512" xmlns="http://www.w3.org/2000/svg"><g><path d="m30 390h211v36.295l-97.441 55.682 14.882 26.046 82.559-47.175v49.152h30v-46.973l66.68 44.453 16.64-24.96-83.32-55.547v-36.973h209v-60h-450z"/><path d="m30 300h450v-210h-450zm331-30h-30v-30h30zm60 0h-30v-30h30zm-75-150v30c-8.272 0-15 6.729-15 15 .824 19.901 29.18 19.893 30 0h30c0 24.813-20.186 45-45 45-59.701-2.472-59.678-87.539 0-90zm-75 120h30v30h-30zm-180-120h105v30h-105zm0 60h150v30h-150zm0 60h150v30h-150z"/><path d="m0 0h510v60h-510z"/></g></svg>